<svg width="16" height="16" viewBox="0 0 16 16" fill="none" xmlns="http://www.w3.org/2000/svg">
<path d="M0.223086 14.7578L0.215901 14.7655C-0.0215239 14.9983 -0.068564 15.3538 0.101866 15.6359C0.274026 15.921 0.625204 16.0602 0.95824 15.9754L5.37373 14.8514C6.19726 15.1245 7.0813 15.2727 8 15.2727C12.4183 15.2727 16 11.8538 16 7.63634C16 3.4189 12.4183 0 8 0C3.58174 0 1.51212e-05 3.4189 1.51212e-05 7.63634C1.51212e-05 9.16571 0.471779 10.5918 1.28396 11.787C1.26059 12.0182 1.22079 12.2833 1.15767 12.5846C0.982804 13.4192 0.724663 13.9846 0.524472 14.3286C0.424099 14.501 0.337463 14.6192 0.281699 14.6888C0.25379 14.7237 0.233546 14.7464 0.223086 14.7578Z" fill="#D8D8D8"/>
</svg>
