<svg width="20" height="20" viewBox="0 0 20 20" fill="none" xmlns="http://www.w3.org/2000/svg">
<path d="M5.43527 12.3915C5.01443 12.0621 4.40617 12.1361 4.07671 12.557C3.74724 12.9778 3.82132 13.5861 4.24216 13.9156L5.43527 12.3915ZM17.0482 13.9156C17.4691 13.5861 17.5431 12.9778 17.2137 12.557C16.8842 12.1361 16.2759 12.0621 15.8551 12.3915L17.0482 13.9156ZM11.6129 15.1613C11.6129 14.6268 11.1796 14.1935 10.6452 14.1935C10.1107 14.1935 9.67743 14.6268 9.67743 15.1613H11.6129ZM9.67743 19.0323C9.67743 19.5667 10.1107 20 10.6452 20C11.1796 20 11.6129 19.5667 11.6129 19.0323H9.67743ZM19.7165 1.65204C20.0945 1.27412 20.0945 0.661369 19.7165 0.283446C19.3386 -0.0944764 18.726 -0.0944764 18.348 0.283446L19.7165 1.65204ZM8.05124 10.5803C7.6733 10.9582 7.6733 11.5708 8.05124 11.9488C8.42917 12.3267 9.04182 12.3267 9.41975 11.9488L8.05124 10.5803ZM0.283442 18.348C-0.0944808 18.7259 -0.0944808 19.3386 0.283442 19.7165C0.661366 20.0945 1.27412 20.0945 1.65204 19.7165L0.283442 18.348ZM9.41975 11.9488C9.79769 11.5708 9.79769 10.9582 9.41975 10.5803C9.04182 10.2023 8.42917 10.2023 8.05124 10.5803L9.41975 11.9488ZM9.3884 10.5502C8.99382 10.1895 8.38169 10.2172 8.02117 10.6116C7.66053 11.0062 7.68814 11.6183 8.08259 11.9788L9.3884 10.5502ZM10.6452 12.0077L10.6434 12.9755C10.65 12.9755 10.6565 12.9755 10.6631 12.9754L10.6452 12.0077ZM13.5484 8.99613H12.5805L12.5808 9.01355L13.5484 8.99613ZM14.5162 6.45161C14.5162 5.91715 14.0829 5.48387 13.5484 5.48387C13.014 5.48387 12.5807 5.91715 12.5807 6.45161H14.5162ZM6.7742 7.7729C6.7742 8.30736 7.20748 8.74065 7.74195 8.74065C8.2764 8.74065 8.70969 8.30736 8.70969 7.7729H6.7742ZM7.74195 3.97936H8.70982L8.70956 3.96188L7.74195 3.97936ZM10.6452 0.967743L10.6525 2.71275e-05C10.644 -3.73886e-05 10.6356 1.44171e-05 10.6272 0.000169256L10.6452 0.967743ZM12.3552 3.01998C12.5885 3.5008 13.1675 3.70141 13.6484 3.46804C14.1292 3.23467 14.3298 2.6557 14.0964 2.17487L12.3552 3.01998ZM4.24216 13.9156C8.00311 16.8599 13.2872 16.8599 17.0482 13.9156L15.8551 12.3915C12.795 14.7872 8.49537 14.7872 5.43527 12.3915L4.24216 13.9156ZM9.67743 15.1613V19.0323H11.6129V15.1613H9.67743ZM18.348 0.283446L8.05124 10.5803L9.41975 11.9488L19.7165 1.65204L18.348 0.283446ZM1.65204 19.7165L9.41975 11.9488L8.05124 10.5803L0.283442 18.348L1.65204 19.7165ZM8.08259 11.9788C8.78233 12.6183 9.6955 12.9737 10.6434 12.9755L10.647 11.04C10.181 11.0391 9.73227 10.8645 9.3884 10.5502L8.08259 11.9788ZM10.6631 12.9754C12.8305 12.935 14.5551 11.1461 14.516 8.97871L12.5808 9.01355C12.6007 10.1126 11.7262 11.0197 10.6272 11.0401L10.6631 12.9754ZM14.5162 8.99613V6.45161H12.5807L12.5805 8.99613H14.5162ZM8.70969 7.7729L8.70982 3.97936H6.7742V7.7729H8.70969ZM8.70956 3.96188C8.68969 2.8629 9.56414 1.95576 10.6631 1.93532L10.6272 0.000169256C8.45988 0.040466 6.73522 1.82948 6.77436 3.99683L8.70956 3.96188ZM10.6378 1.93546C11.37 1.94101 12.0355 2.36133 12.3552 3.01998L14.0964 2.17487C13.4554 0.854053 12.1207 0.0111497 10.6525 2.71275e-05L10.6378 1.93546Z" fill="white"/>
</svg>
